<svg xmlns="http://www.w3.org/2000/svg" xlink="http://www.w3.org/1999/xlink" version="1.1" class="marks" viewBox="0 0 341 212" id="1a76cbb9-642f-4f7c-bbbc-7da40ab52bcc"><g fill="none" stroke-miterlimit="10" transform="translate(6,6)"><g class="mark-group role-frame root" role="graphics-object" aria-roledescription="group mark container"><g transform="translate(0,0)"><path class="background" aria-hidden="true" d="M0,0h200v200h-200Z"></path><g><g class="mark-arc role-mark marks" role="graphics-object" aria-roledescription="arc mark container"><path aria-label="Amount: 28; Fruit: Apples" role="graphics-symbol" aria-roledescription="arc mark" transform="translate(100,100)" d="M72.479278722912,-68.89669190756865A100,100,0,0,0,6.123233995736766e-15,-100L0,0Z" fill="url(#1a76cbb9-642f-4f7c-bbbc-7da40ab52bcc-fill-0)" stroke="currentColor"></path><path aria-label="Amount: 55; Fruit: Blackberries" role="graphics-symbol" aria-roledescription="arc mark" transform="translate(100,100)" d="M67.3066051368929,73.95823757328444A100,100,0,0,0,72.479278722912,-68.89669190756865L0,0Z" fill="url(#1a76cbb9-642f-4f7c-bbbc-7da40ab52bcc-fill-1)" stroke="currentColor"></path><path aria-label="Amount: 43; Fruit: Cherries" role="graphics-symbol" aria-roledescription="arc mark" transform="translate(100,100)" d="M-48.53019625310813,87.4346616144582A100,100,0,0,0,67.3066051368929,73.95823757328444L0,0Z" fill="url(#1a76cbb9-642f-4f7c-bbbc-7da40ab52bcc-fill-2)" stroke="currentColor"></path><path aria-label="Amount: 91; Fruit: Dates" role="graphics-symbol" aria-roledescription="arc mark" transform="translate(100,100)" d="M-1.8369701987210297e-14,-100A100,100,0,0,0,-48.53019625310813,87.4346616144582L0,0Z" fill="url(#1a76cbb9-642f-4f7c-bbbc-7da40ab52bcc-fill-3)" stroke="currentColor"></path></g><g class="mark-group role-legend" role="graphics-symbol" aria-roledescription="legend" aria-label="Symbol legend titled 'Fruit' for fill color with 4 values: Apples, Blackberries, Cherries, Dates"><g transform="translate(218,0)"><path class="background" aria-hidden="true" d="M0,0h112v77h-112Z" pointer-events="none"></path><g><g class="mark-group role-legend-entry"><g transform="translate(0,16)"><path class="background" aria-hidden="true" d="M0,0h0v0h0Z" pointer-events="none"></path><g><g class="mark-group role-scope" role="graphics-object" aria-roledescription="group mark container"><g transform="translate(0,0)"><path class="background" aria-hidden="true" d="M0,0h112v12.5h-112Z" pointer-events="none" opacity="1"></path><g><g class="mark-symbol role-legend-symbol" pointer-events="none"><path transform="translate(6,6)" d="M5,0A5,5,0,1,1,-5,0A5,5,0,1,1,5,0" fill="url(#1a76cbb9-642f-4f7c-bbbc-7da40ab52bcc-fill-0)" stroke="currentColor" stroke-width="1.5" opacity="1"></path></g><g class="mark-text role-legend-label" pointer-events="none"><text text-anchor="start" transform="translate(16,9)" font-family="sans-serif" font-size="10px" fill="currentColor" opacity="1">Apples</text></g></g><path class="foreground" aria-hidden="true" d="" pointer-events="none" display="none"></path></g><g transform="translate(0,16)"><path class="background" aria-hidden="true" d="M0,0h112v12.5h-112Z" pointer-events="none" opacity="1"></path><g><g class="mark-symbol role-legend-symbol" pointer-events="none"><path transform="translate(6,6)" d="M5,0A5,5,0,1,1,-5,0A5,5,0,1,1,5,0" fill="url(#1a76cbb9-642f-4f7c-bbbc-7da40ab52bcc-fill-1)" stroke="currentColor" stroke-width="1.5" opacity="1"></path></g><g class="mark-text role-legend-label" pointer-events="none"><text text-anchor="start" transform="translate(16,9)" font-family="sans-serif" font-size="10px" fill="currentColor" opacity="1">Blackberries</text></g></g><path class="foreground" aria-hidden="true" d="" pointer-events="none" display="none"></path></g><g transform="translate(0,32)"><path class="background" aria-hidden="true" d="M0,0h112v12.5h-112Z" pointer-events="none" opacity="1"></path><g><g class="mark-symbol role-legend-symbol" pointer-events="none"><path transform="translate(6,6)" d="M5,0A5,5,0,1,1,-5,0A5,5,0,1,1,5,0" fill="url(#1a76cbb9-642f-4f7c-bbbc-7da40ab52bcc-fill-2)" stroke="currentColor" stroke-width="1.5" opacity="1"></path></g><g class="mark-text role-legend-label" pointer-events="none"><text text-anchor="start" transform="translate(16,9)" font-family="sans-serif" font-size="10px" fill="currentColor" opacity="1">Cherries</text></g></g><path class="foreground" aria-hidden="true" d="" pointer-events="none" display="none"></path></g><g transform="translate(0,48)"><path class="background" aria-hidden="true" d="M0,0h112v12.5h-112Z" pointer-events="none" opacity="1"></path><g><g class="mark-symbol role-legend-symbol" pointer-events="none"><path transform="translate(6,6)" d="M5,0A5,5,0,1,1,-5,0A5,5,0,1,1,5,0" fill="url(#1a76cbb9-642f-4f7c-bbbc-7da40ab52bcc-fill-3)" stroke="currentColor" stroke-width="1.5" opacity="1"></path></g><g class="mark-text role-legend-label" pointer-events="none"><text text-anchor="start" transform="translate(16,9)" font-family="sans-serif" font-size="10px" fill="currentColor" opacity="1">Dates</text></g></g><path class="foreground" aria-hidden="true" d="" pointer-events="none" display="none"></path></g></g></g><path class="foreground" aria-hidden="true" d="" pointer-events="none" display="none"></path></g></g><g class="mark-text role-legend-title" pointer-events="none"><text text-anchor="start" transform="translate(0,9)" font-family="sans-serif" font-size="11px" font-weight="bold" fill="currentColor" opacity="1">Fruit</text></g></g><path class="foreground" aria-hidden="true" d="" pointer-events="none" display="none"></path></g></g></g><path class="foreground" aria-hidden="true" d="" display="none"></path></g></g></g><defs><pattern id="1a76cbb9-642f-4f7c-bbbc-7da40ab52bcc-fill-0" patternUnits="userSpaceOnUse" width="5" height="5"><path d="M 0,5 l 5,-5 M -1.25,1.25 l 2.5,-2.5 M 3.75,6.25 l 2.5,-2.5" stroke-width="2" shape-rendering="auto" stroke="currentColor" stroke-linecap="square"></path></pattern><pattern id="1a76cbb9-642f-4f7c-bbbc-7da40ab52bcc-fill-1" patternUnits="userSpaceOnUse" width="7" height="7"><circle cx="3.5" cy="3.5" r="1" fill="currentColor" stroke="currentColor" stroke-width="0"></circle><circle cx="0" cy="0" r="1" fill="currentColor" stroke="currentColor" stroke-width="0"></circle><circle cx="0" cy="7" r="1" fill="currentColor" stroke="currentColor" stroke-width="0"></circle><circle cx="7" cy="0" r="1" fill="currentColor" stroke="currentColor" stroke-width="0"></circle><circle cx="7" cy="7" r="1" fill="currentColor" stroke="currentColor" stroke-width="0"></circle></pattern><pattern id="1a76cbb9-642f-4f7c-bbbc-7da40ab52bcc-fill-2" patternUnits="userSpaceOnUse" width="8" height="8"><path d="M 0,0 l 8,8 M -2,6 l 4,4 M 6,-2 l 4,4" stroke-width="2" shape-rendering="auto" stroke="currentColor" stroke-linecap="square"></path></pattern><pattern id="1a76cbb9-642f-4f7c-bbbc-7da40ab52bcc-fill-3" patternUnits="userSpaceOnUse" width="6" height="6"><circle cx="3" cy="3" r="2" fill="currentColor" stroke="currentColor" stroke-width="0"></circle><circle cx="0" cy="0" r="2" fill="currentColor" stroke="currentColor" stroke-width="0"></circle><circle cx="0" cy="6" r="2" fill="currentColor" stroke="currentColor" stroke-width="0"></circle><circle cx="6" cy="0" r="2" fill="currentColor" stroke="currentColor" stroke-width="0"></circle><circle cx="6" cy="6" r="2" fill="currentColor" stroke="currentColor" stroke-width="0"></circle></pattern><pattern id="1a76cbb9-642f-4f7c-bbbc-7da40ab52bcc-fill-4" patternUnits="userSpaceOnUse" width="7" height="7"><circle cx="3.5" cy="3.5" r="1" fill="currentColor" stroke="currentColor" stroke-width="0"></circle></pattern><pattern id="1a76cbb9-642f-4f7c-bbbc-7da40ab52bcc-fill-5" patternUnits="userSpaceOnUse" width="6" height="6"><path d="M 0 3 c 0.75 -1.5 , 2.25 -1.5 , 3 0 c 0.75 1.5 , 2.25 1.5 , 3 0 M -3 3 c 0.75 1.5 , 2.25 1.5 , 3 0 M 6 3 c 0.75 -1.5 , 2.25 -1.5 , 3 0" fill="transparent" stroke="currentColor" stroke-width="2" stroke-linecap="square" shape-rendering="auto"></path></pattern></defs></svg>