<svg viewBox="0 0 640 191" xmlns="http://www.w3.org/2000/svg" style="font-family: ui-monospace, 'Cascadia Code', 'Source Code Pro', Menlo, Consolas, 'DejaVu Sans Mono', monospace"><g transform="translate(40, 0)"><g transform="translate(0, 10)"><text x="40" fill="currentColor" text-anchor="middle" font-size="8">2020-01-01</text><text x="120" fill="currentColor" text-anchor="middle" font-size="8">02</text><text x="200" fill="currentColor" text-anchor="middle" font-size="8">03</text><text x="280" fill="currentColor" text-anchor="middle" font-size="8">04</text><text x="360" fill="currentColor" text-anchor="middle" font-size="8">05</text><text x="440" fill="currentColor" text-anchor="middle" font-size="8">06</text><text x="520" fill="currentColor" text-anchor="middle" font-size="8">07</text><line x1="0" x2="0" y1="0" y2="171" stroke="currentColor" stroke-dasharray="2 2" opacity="0.2"></line><line x1="80" x2="80" y1="0" y2="171" stroke="currentColor" stroke-dasharray="2 2" opacity="0.2"></line><line x1="160" x2="160" y1="0" y2="171" stroke="currentColor" stroke-dasharray="2 2" opacity="0.2"></line><line x1="240.00000000000003" x2="240.00000000000003" y1="0" y2="171" stroke="currentColor" stroke-dasharray="2 2" opacity="0.2"></line><line x1="320" x2="320" y1="0" y2="171" stroke="currentColor" stroke-dasharray="2 2" opacity="0.2"></line><line x1="400" x2="400" y1="0" y2="171" stroke="currentColor" stroke-dasharray="2 2" opacity="0.2"></line><line x1="480.00000000000006" x2="480.00000000000006" y1="0" y2="171" stroke="currentColor" stroke-dasharray="2 2" opacity="0.2"></line><line x1="560" x2="560" y1="0" y2="171" stroke="currentColor" stroke-dasharray="2 2" opacity="0.2"></line></g><g transform="translate(0, 20)"><g transform="translate(0, 5)"><text x="5" y="7" fill="currentColor" font-size="10">Feature one</text><g transform="translate(0, 11)"><defs><mask id="mask_593722398924319"><rect width="100%" height="100%" fill="#fff"></rect><text x="80" y="15" text-anchor="middle" font-size="10" fill="#000">backend</text></mask></defs><rect mask="url('#mask_593722398924319')" x="1" y="1" width="158" height="20" rx="2" fill="currentColor"></rect></g><g transform="translate(80, 33)"><defs><mask id="mask_0033800413584977873"><rect width="100%" height="100%" fill="#fff"></rect><text x="120" y="15" text-anchor="middle" font-size="10" fill="#000">frontend</text></mask></defs><rect mask="url('#mask_0033800413584977873')" x="1" y="1" width="238" height="20" rx="2" fill="currentColor"></rect></g><g transform="translate(240.00000000000003, 55)"><defs><mask id="mask_016448035899985003"><rect width="100%" height="100%" fill="#fff"></rect><text x="39.999999999999986" y="15" text-anchor="middle" font-size="10" fill="#000">testing</text></mask></defs><rect mask="url('#mask_016448035899985003')" x="1" y="1" width="77.99999999999997" height="20" rx="2" fill="currentColor"></rect></g></g><g transform="translate(0, 88)"><text x="5" y="7" fill="currentColor" font-size="10">Feature two</text><g transform="translate(160, 11)"><defs><mask id="mask_22590322812407715"><rect width="100%" height="100%" fill="#fff"></rect><text x="120" y="15" text-anchor="middle" font-size="10" fill="#000">backend</text></mask></defs><rect mask="url('#mask_22590322812407715')" x="1" y="1" width="238" height="20" rx="2" fill="currentColor"></rect></g><g transform="translate(240.00000000000003, 33)"><defs><mask id="mask_31993702258897394"><rect width="100%" height="100%" fill="#fff"></rect><text x="160" y="15" text-anchor="middle" font-size="10" fill="#000">frontend</text></mask></defs><rect mask="url('#mask_31993702258897394')" x="1" y="1" width="318" height="20" rx="2" fill="currentColor"></rect></g><g transform="translate(480.00000000000006, 55)"><defs><mask id="mask_4713807240209944"><rect width="100%" height="100%" fill="#fff"></rect><text x="39.99999999999997" y="15" text-anchor="middle" font-size="10" fill="#000">testing</text></mask></defs><rect mask="url('#mask_4713807240209944')" x="1" y="1" width="77.99999999999994" height="20" rx="2" fill="currentColor"></rect></g></g></g></g></svg>